<svg width="67" height="62" viewBox="0 0 67 62" version="1.1" xmlns="http://www.w3.org/2000/svg" xmlns:xlink="http://www.w3.org/1999/xlink">
<title>Path 4</title>
<desc>Created using Figma</desc>
<g id="Canvas" transform="translate(97 -652)">
<rect x="-97" y="652" width="67" height="62" fill="#E5E5E5"/>
<clipPath id="clip-0" clip-rule="evenodd">
<path d="M -704 -515L 736 -515L 736 2091L -704 2091L -704 -515Z" fill="#FFFFFF"/>
</clipPath>
<g id="Desktop HD" clip-path="url(#clip-0)">
<path d="M -704 -515L 736 -515L 736 2091L -704 2091L -704 -515Z" fill="#FFFFFF"/>
<g id="Group">
<g id="Group">
<g id="Group">
<g id="Rectangle 3" filter="url(#filter0_d)">
<use xlink:href="#path0_fill" transform="translate(-124 625)" fill="#FFFFFF"/>
</g>
<g id="Path 4">
<use xlink:href="#path1_fill" transform="translate(-97 652)" fill="#35AFFB"/>
</g>
</g>
</g>
</g>
</g>
</g>
<defs>
<filter id="filter0_d" filterUnits="userSpaceOnUse" x="-134" y="620" width="140" height="140" color-interpolation-filters="sRGB">
<feFlood flood-opacity="0" result="BackgroundImageFix"/>
<feColorMatrix in="SourceAlpha" type="matrix" values="0 0 0 0 0 0 0 0 0 0 0 0 0 0 0 0 0 0 255 0"/>
<feOffset dx="0" dy="5"/>
<feGaussianBlur stdDeviation="5"/>
<feColorMatrix type="matrix" values="0 0 0 0 0 0 0 0 0 0 0 0 0 0 0 0 0 0 0.15 0"/>
<feBlend mode="normal" in2="BackgroundImageFix" result="effect1_dropShadow"/>
<feBlend mode="normal" in="SourceGraphic" in2="effect1_dropShadow" result="shape"/>
</filter>
<path id="path0_fill" d="M 0 12C 0 5.37258 5.37258 0 12 0L 108 0C 114.627 0 120 5.37258 120 12L 120 108C 120 114.627 114.627 120 108 120L 12 120C 5.37258 120 0 114.627 0 108L 0 12Z"/>
<path id="path1_fill" fill-rule="evenodd" d="M 4.26211 62C 1.03277 62 -1.02014 58.5558 0.52429 55.7289L 29.7622 2.21339C 31.3745 -0.737797 35.6255 -0.737797 37.2378 2.21339L 66.4757 55.7289C 68.0201 58.5558 65.9672 62 62.7379 62L 4.26211 62Z"/>
</defs>
</svg>
