<svg width="59" height="65" viewBox="0 0 59 65" version="1.1" xmlns="http://www.w3.org/2000/svg" xmlns:xlink="http://www.w3.org/1999/xlink">
<title>Union</title>
<desc>Created using Figma</desc>
<g id="Canvas" transform="translate(-430 -653)">
<g id="Union">
<use xlink:href="#path0_fill" transform="translate(430 653)" fill="#FFFFFF"/>
</g>
</g>
<defs>
<path id="path0_fill" fill-rule="evenodd" d="M 30.8069 7.79835C 30.1246 7.1753 29.215 7.1753 28.6086 7.79835L 10.6436 23.9205C 8.14219 26.1013 5.03431 27.3474 1.77485 27.3474C 0.258824 27.3474 -0.650813 24.933 0.562017 23.9205L 25.5765 1.56758C 27.9264 -0.535329 31.4891 -0.535329 33.8389 1.64546L 58.247 23.9984C 59.5356 25.1667 58.7018 27.3474 57.0342 27.3474C 53.8505 27.3474 50.8185 26.1013 48.3928 23.9205L 30.8069 7.79835ZM 17.8433 30.6087C 16.0999 30.6087 14.6597 29.1289 14.6597 27.3376C 14.6597 25.6241 16.0999 24.1443 17.8433 24.1443L 41.3418 24.1443C 43.0853 24.1443 44.5255 25.6241 44.5255 27.3376C 44.5255 29.1289 43.0853 30.6087 41.3418 30.6087L 17.8433 30.6087ZM 1.92115 42.2498C 1.92115 44.061 3.31669 45.4949 5.0795 45.4949L 15.7298 45.4949C 16.3908 45.4949 16.7581 46.1742 16.5377 46.7779L 10.3679 60.1359C 9.3396 62.3245 10.9555 64.8904 13.3794 64.8149L 42.4656 64.8142C 46.6986 64.8142 49.6317 60.5906 48.1532 56.6242L 47.2399 54.1738C 45.6487 50.4382 43.8369 50.6083 42.4656 50.9484C 41.0943 51.2886 40.0418 52.4791 40.3355 54.1738L 40.9232 56.5767C 41.1435 57.1805 40.7028 57.8726 40.0418 57.8726L 19.9164 57.8718C 19.2554 57.8718 18.8147 57.1926 19.1085 56.5889L 23.5889 46.7779C 23.9562 46.0233 24.6907 45.4949 25.5721 45.4949L 52.8955 45.4949C 54.5849 45.4949 56.0539 44.061 56.0539 42.2498C 56.0539 40.4385 54.5849 39.0047 52.8955 39.0047L 5.0795 39.0047C 3.31669 39.0047 1.92115 40.4385 1.92115 42.2498Z"/>
</defs>
</svg>
