<svg width="488" height="203" viewBox="0 0 488 203" version="1.1" xmlns="http://www.w3.org/2000/svg" xmlns:xlink="http://www.w3.org/1999/xlink">
<title>Dark</title>
<desc>Created using Figma</desc>
<g id="Canvas" transform="translate(-1372 22)">
<clipPath id="clip-0" clip-rule="evenodd">
<path d="M 1372 -22L 1860 -22L 1860 181L 1372 181L 1372 -22Z" fill="#FFFFFF"/>
</clipPath>
<g id="Dark" clip-path="url(#clip-0)">
<g id="Duohui Logo">
<g id="Duohui Font">
<use xlink:href="#path0_fill" transform="translate(1607.08 11.7917)" fill="#FFFFFF"/>
</g>
<g id="Duohui Icon 2">
<g id="Vector">
<use xlink:href="#path1_fill" transform="matrix(1.26636 0 0 1.21929 1416.93 66.4322)" fill="#3A88FD"/>
</g>
<g id="Vector">
<use xlink:href="#path2_fill" transform="matrix(1.41534 0 0 1.21834 1410 4)" fill="#35AFFB"/>
</g>
</g>
</g>
</g>
</g>
<defs>
<path id="path0_fill" fill-rule="evenodd" d="M 172.926 15.8307C 171.539 14.5658 169.689 14.5658 168.456 15.8307L 131.927 48.5586C 126.841 52.9856 120.522 55.5153 113.894 55.5153C 110.812 55.5153 108.962 50.614 111.428 48.5586L 162.291 3.18216C 167.069 -1.08671 174.313 -1.08671 179.091 3.34026L 228.721 48.7167C 231.341 51.0883 229.646 55.5153 226.255 55.5153C 219.781 55.5153 213.616 52.9856 208.684 48.5586L 172.926 15.8307ZM 36.152 73.6789C 41.509 68.5069 48.5991 65.7593 56.0044 65.7593L 95.7092 65.7593C 100.436 65.7593 103.272 71.2545 100.436 75.1335L 72.5481 113.761C 67.9789 119.903 61.8341 124.59 54.9015 127.176L 10.3124 143.662C 7.00366 144.955 3.53735 142.369 3.53735 138.813C 3.53735 134.288 6.21582 130.247 10.3124 128.792L 47.3386 115.216C 48.5991 114.731 48.9143 113.115 47.8114 112.145L 31.8979 98.8921C 31.1101 98.2456 30.1648 98.2456 29.377 98.8921C 26.3834 101.64 22.6019 103.256 18.5055 103.256L 14.724 103.256C 11.1002 103.256 9.52454 98.7305 12.0455 96.3062L 36.152 73.6789ZM 52.8533 79.6589C 50.9625 79.6589 49.0719 80.3054 47.6538 81.76L 43.0846 85.9622C 41.8242 87.0936 41.8242 89.0331 43.0846 90.0028L 59.1556 103.579C 60.4161 104.549 62.3068 104.387 63.4097 102.933L 78.2202 82.0833C 79.0081 81.1135 78.2202 79.6589 76.9597 79.6589L 52.8533 79.6589ZM 140.094 55.4951C 140.094 59.1316 143.022 62.1356 146.567 62.1356L 194.347 62.1356C 197.892 62.1356 200.821 59.1316 200.821 55.4951C 200.821 52.0168 197.892 49.0128 194.347 49.0128L 146.567 49.0128C 143.022 49.0128 140.094 52.0168 140.094 55.4951ZM 120.614 92.3549C 117.03 92.3549 114.192 89.4441 114.192 85.7672C 114.192 82.0904 117.03 79.1796 120.614 79.1796L 217.84 79.1796C 221.275 79.1796 224.262 82.0904 224.262 85.7672C 224.262 89.4441 221.275 92.3549 217.84 92.3549L 162.282 92.3549C 160.49 92.3549 158.996 93.4273 158.25 94.9593L 149.139 114.876C 148.542 116.101 149.438 117.48 150.782 117.48L 191.704 117.481C 193.048 117.481 193.944 116.077 193.496 114.851L 192.301 109.973C 191.704 106.533 193.844 104.116 196.632 103.425C 199.421 102.735 203.105 102.39 206.34 109.973L 208.188 114.923C 211.198 122.985 205.237 131.573 196.632 131.573L 137.49 131.574C 132.562 131.728 129.276 126.519 131.367 122.076L 143.912 94.9593C 144.36 93.7337 143.614 92.3549 142.269 92.3549L 120.614 92.3549ZM 91.0117 10.0783C 93.7697 6.30621 91.0117 0.805218 86.4152 0.805218L 46.4252 0.805218C 39.2239 0.805218 32.3291 3.79147 27.2728 8.97812L 7.66089 28.9388C 5.20947 31.4536 6.89478 35.8544 10.4188 35.8544L 15.3218 35.8544C 18.233 35.8544 20.991 34.597 22.9828 32.3966C 23.4424 31.9251 24.3617 31.9251 24.8214 32.2394L 39.6836 43.7129C 40.9093 44.656 40.7561 46.3848 39.5303 47.1707L 6.74158 61.8973C 2.60474 64.2549 0 68.8129 0 73.8423C 0 77.3001 3.67725 79.5005 6.74158 77.7716L 53.7797 54.5577C 60.2148 50.7856 65.7307 45.7562 70.0208 39.6265L 91.0117 10.0783ZM 38.611 16.6795C 39.99 15.265 41.8286 14.6363 43.6671 14.6363L 68.4885 14.6363C 69.7142 14.6363 70.4803 16.0508 69.7142 16.9938L 56.2311 35.6972C 55.1586 37.1117 53.3199 37.4261 52.0942 36.3259L 35.6998 23.7522C 34.4741 22.8092 34.3208 20.9231 35.5466 19.8229L 38.611 16.6795Z"/>
<path id="path1_fill" fill-rule="evenodd" d="M 44.578 1.731C 45.318 0.644999 46.52 -4.57764e-07 47.8 -4.57764e-07C 49.081 -4.57764e-07 50.282 0.644999 51.023 1.731C 59.517 14.19 82.676 48.156 94.439 65.408C 95.804 67.41 95.98 70.035 94.895 72.214C 93.81 74.393 91.645 75.761 89.283 75.761C 68.616 75.761 26.985 75.761 6.31701 75.761C 3.95601 75.761 1.79101 74.393 0.706014 72.214C -0.378986 70.035 -0.202985 67.41 1.16202 65.408C 12.925 48.156 36.083 14.19 44.578 1.731Z"/>
<path id="path2_fill" fill-rule="evenodd" d="M 43.2318 2.489C 44.3038 0.917002 45.9358 -5.18799e-07 47.6618 -5.18799e-07C 49.3888 -5.18799e-07 51.0208 0.917002 52.0928 2.489C 61.3478 16.063 82.8048 47.533 94.1028 64.104C 95.4488 66.078 95.7038 68.772 94.7608 71.039C 93.8168 73.307 91.8398 74.747 89.6718 74.747C 69.0188 74.747 26.3058 74.747 5.65284 74.747C 3.48484 74.747 1.50784 73.307 0.563843 71.039C -0.380157 68.772 -0.12416 66.078 1.22184 64.104C 12.5198 47.533 33.9768 16.063 43.2318 2.489Z"/>
</defs>
</svg>
